<svg width="163" height="169" viewBox="0 0 163 169" fill="none" xmlns="http://www.w3.org/2000/svg">
<ellipse cx="81.9993" cy="155" rx="13.9998" ry="14" fill="white"/>
<path fill-rule="evenodd" clip-rule="evenodd" d="M10 80C10 41.4329 41.9175 10 81.4991 10C121.081 10 152.998 41.4329 152.998 80C152.998 90.9811 150.411 101.384 145.795 110.647C143.433 115.389 135.998 111.298 135.998 106C135.998 76.1767 111.822 52 81.9991 52C52.176 52 27.9997 76.1767 27.9997 106C27.9997 106.12 28.0001 106.241 28.0008 106.361C28.0375 111.968 20.2329 116.529 17.6596 111.548C12.7586 102.06 10 91.3383 10 80ZM59.9987 150.669C59.9987 153.956 56.8756 156.35 53.7775 155.25C22.4536 144.126 0 114.687 0 80C0 35.7244 36.5821 0 81.4991 0C126.416 0 162.998 35.7244 162.998 80C162.998 114.688 140.544 144.127 109.219 155.25C106.121 156.351 102.998 153.957 102.998 150.669V147.647C102.998 145.815 104.013 144.15 105.559 143.168C117.845 135.363 125.998 121.634 125.998 106C125.998 81.6994 106.299 62 81.9991 62C57.6989 62 37.9997 81.6994 37.9997 106C37.9997 121.254 45.7617 134.695 57.5514 142.588C59.0344 143.581 59.9987 145.212 59.9987 146.997V150.669Z" fill="white"/>
</svg>
